<svg
    id="apple-svg"
    xmlns="http://www.w3.org/2000/svg"
    width="147.40355mm" 
    height="153.80754mm" 
    viewBox="0 0 225 300" 
    class="w-100">

    <style>
        #apple-svg #path1 {
            animation: scale-body 2s infinite ease-in-out;
            transform-origin: center;
        }

        @keyframes scale-body {
            0%, 100% {
                transform: scale(1);
            }
            50% {
                transform: scale(1.1);
            }
        }

        #apple-svg #path2 {
            animation: leaf-sway 2s infinite alternate ease-in-out;
            transform-origin: center;
        }

        @keyframes leaf-sway {
            0% {
                transform: rotate(0deg);
            }
            100% {
                transform: rotate(15deg);
            }
        }
    </style>

    <!-- Poma -->
    <path
        id="path1"
        style="opacity:1;fill:#000000;stroke-width:0.264583"
        d="m 183.79158,119.46775 c -3.5871,1.92698 -6.87935,4.40162 -9.72749,7.31172 -4.93536,5.04272 -8.50121,11.38107 -10.43611,18.16657 -2.98758,10.47718 -2.01717,22.03263 2.67599,31.86478 4.69315,9.83215 13.0673,17.8536 23.09219,22.11957 -3.23566,8.85397 -7.2959,17.4064 -12.11104,25.51051 -4.03523,6.79148 -8.6336,13.30769 -14.30135,18.81077 -2.63651,2.55991 -5.51502,4.90413 -8.74771,6.65172 -3.23269,1.7476 -6.83971,2.88492 -10.51401,2.94693 -3.40026,0.0574 -6.75585,-0.79929 -9.95902,-1.94154 -3.20317,-1.14225 -6.29707,-2.57325 -9.49595,-3.72746 -4.28047,-1.54447 -8.78449,-2.59294 -13.33504,-2.57682 -6.79804,0.0241 -13.349891,2.40213 -19.648243,4.96038 -2.614533,1.06196 -5.231567,2.16604 -7.988139,2.77008 -3.987244,0.87371 -8.196333,0.6624 -12.101067,-0.52694 -3.904735,-1.18934 -7.500623,-3.3469 -10.446094,-6.17279 -0.394465,-0.37845 -0.777478,-0.76863 -1.159569,-1.15957 -1.528991,-1.5644 -3.044683,-3.14242 -4.509431,-4.76712 -3.64142,-4.03908 -6.963528,-8.36261 -9.985174,-12.88409 -5.691456,-8.51648 -10.316936,-17.74081 -13.785976,-27.37869 -3.395611,-9.43388 -5.685633,-19.27193 -6.69973,-29.24689 -1.055562,-10.38283 -0.710063,-21.00703 2.125875,-31.05067 2.236999,-7.92246 6.030126,-15.4278 11.273581,-21.77412 8.271962,-10.01182 20.468158,-17.04309 33.43422,-17.780044 4.10055,-0.233063 8.228495,0.148942 12.23989,1.030724 3.91921,0.86152 7.724411,2.19624 11.402422,3.80081 2.964786,1.29342 5.877425,2.77226 9.018865,3.54313 2.23066,0.54738 4.57973,0.72476 6.82857,0.25768 1.49175,-0.30983 2.91015,-0.89481 4.31617,-1.48167 6.83936,-2.8547 13.70429,-5.85333 21.00107,-7.150674 13.13077,-2.33461 27.11659,1.223154 37.79869,9.208164 2.15222,1.60881 4.17615,3.38644 6.08175,5.28091 1.22861,1.22143 2.41623,2.50163 3.33976,3.96739 0.25416,0.40339 0.48763,0.81982 0.69917,1.2471 z" />
    
        <!-- Fulla -->
    <path
        id="path2"
        style="fill:#000000;stroke-width:0.264583"
        d="m 106.34148,96.547775 c 3.08757,0.167709 6.19866,-0.103819 9.21049,-0.803867 9.4565,-2.198001 17.59931,-8.598378 23.19987,-16.528725 4.54242,-6.432035 7.58846,-13.980739 8.33604,-21.819478 0.24543,-2.573505 0.24543,-5.17036 0,-7.743865 -5.66189,0.611423 -11.21248,2.23939 -16.30767,4.782976 -0.99123,0.494835 -1.9655,1.024044 -2.91533,1.594324 -4.46755,2.682323 -8.36292,6.260655 -11.66135,10.294786 -4.34632,5.315743 -7.71063,11.518264 -9.20154,18.220859 -0.87396,3.929019 -1.09808,8.001799 -0.66051,12.00299 z" />
</svg>